<svg width="226" height="139" viewBox="0 0 226 139" fill="none" xmlns="http://www.w3.org/2000/svg">
<path d="M24.7007 38.5043C24.7007 41.1615 24.2929 48.9723 23.9808 53.5265C23.9099 54.5611 23.675 55.782 23.5699 65.5888C23.4649 75.3955 23.4649 93.7484 23.9747 102.693C24.4845 111.638 25.5041 110.618 27.2528 109.685C34.8063 105.655 39.3089 104.834 43.6314 103.394C50.5577 101.087 55.9933 99.2728 59.1912 97.935C63.9903 95.9272 71.8497 93.0934 74.7448 92.1665C77.5978 91.253 82.3424 88.7801 85.9697 87.2229C89.063 85.895 91.4262 84.0343 94.4139 82.1805C97.576 80.2185 99.0516 77.4471 100.803 74.9722C101.27 74.3132 101.931 73.7394 101.329 72.8125C96.7626 65.7878 87.7432 64.8781 84.2426 62.8173C79.9637 60.2983 73.5306 57.4628 71.0557 56.3258C68.4979 55.1507 58.7741 50.9003 52.0045 48.2926C48.6956 47.0179 43.8817 44.6961 40.7765 43.349C38.1943 42.2288 35.4282 40.7784 32.7433 39.6414C31.5105 38.9245 30.2684 38.0965 28.9336 37.3766C28.2107 37.0645 27.395 36.8606 25.9366 36.0326" stroke="#EA4335" stroke-width="10" stroke-linecap="round"/>
<path d="M130.369 35.4146C130.369 36.6443 130.165 38.906 129.856 51.7685C129.572 63.6084 129.751 86.2466 130.363 97.9072C130.974 109.568 132.198 109.568 133.236 109.364C136.888 108.647 139.626 107.306 143.123 105.866C145.881 104.731 148.691 104.216 152.887 102.885C161.273 100.223 170.498 97.6353 176.467 95.3705C181.01 93.647 183.907 92.0676 186.592 90.5197C189.186 89.0241 193.374 86.7162 196.785 84.4484C201.345 81.4171 202.662 79.4987 203.691 78.5748C204.185 78.1316 204.312 77.4471 204.111 76.6221C202.789 71.1919 195.883 68.3757 193.102 66.8339C188.223 64.1286 182.919 60.7626 179.406 59.1096C174.538 56.819 172.401 54.9911 169.825 53.3412C167.027 51.5498 163.96 50.2576 161.275 48.9105C158.511 47.5238 155.717 45.7219 153.242 44.5849C150.591 43.3669 148.302 41.8042 145.827 40.4663C143.432 39.1718 140.886 38.0965 138.411 37.2716C137.79 37.0645 137.179 36.8606 136.558 36.6536C135.937 36.4466 135.325 36.2427 134.694 36.0326" stroke="#4285F4" stroke-width="10" stroke-linecap="round"/>
</svg>
